<svg xmlns="http://www.w3.org/2000/svg" xmlns:xlink="http://www.w3.org/1999/xlink" width="255" height="255" viewBox="0 0 255 255">
  <defs>
    <clipPath id="clip-path">
      <rect id="Rect치ngulo_11" data-name="Rect치ngulo 11" width="98" height="99" transform="translate(0.379)" fill="#fff" stroke="#707070" stroke-width="1"/>
    </clipPath>
  </defs>
  <g id="Grupo_20" data-name="Grupo 20" transform="translate(-886 -211)">
    <g id="Grupo_13" data-name="Grupo 13" transform="translate(1 -70)">
      <g id="Grupo_10" data-name="Grupo 10" transform="translate(885 281)">
        <rect id="Rect치ngulo_9" data-name="Rect치ngulo 9" width="255" height="255" fill="#f2f2f2"/>
      </g>
    </g>
    <g id="Grupo_5" data-name="Grupo 5" transform="translate(-24 -219)">
      <g id="Enmascarar_grupo_3" data-name="Enmascarar grupo 3" transform="translate(988.62 481)" clip-path="url(#clip-path)">
        <path id="javascript" d="M0,0H98.735V98.735H0ZM90.647,75.187c-.72-4.5-3.653-8.29-12.354-11.819-3.028-1.419-6.393-2.407-7.393-4.69a4.858,4.858,0,0,1-.189-2.9c.617-2.658,3.764-3.456,6.233-2.715a6.693,6.693,0,0,1,4.015,3.7c4.254-2.781,4.254-2.781,7.22-4.628a16.979,16.979,0,0,0-2.411-3.209c-2.592-2.9-6.043-4.381-11.659-4.254l-2.9.366a13.261,13.261,0,0,0-7.035,4.135c-4.69,5.311-3.336,14.568,2.341,18.393,5.616,4.2,13.827,5.118,14.876,9.071.987,4.813-3.579,6.356-8.088,5.8-3.336-.741-5.184-2.411-7.22-5.5l-7.529,4.324c.864,1.975,1.851,2.835,3.332,4.562,7.158,7.224,25.054,6.854,28.267-4.13a13.924,13.924,0,0,0,.3-6.788l.189.276ZM53.691,45.381H44.443c0,7.973-.037,15.9-.037,23.882,0,5.068.259,9.721-.568,11.153-1.358,2.835-4.854,2.472-6.442,1.975a7.938,7.938,0,0,1-3.415-3.517,3.529,3.529,0,0,0-.522-.806l-7.508,4.628A14.551,14.551,0,0,0,31.4,88.936,18.105,18.105,0,0,0,44.591,90.6a11.555,11.555,0,0,0,7.45-5.8c2.1-3.826,1.654-8.516,1.633-13.765.049-8.45,0-16.9,0-25.42l.016-.23Z" transform="translate(0 0)"/>
      </g>
      <text id="JAVASCRIPT-2" data-name="JAVASCRIPT" transform="translate(959 624)" fill="#4d4d4d" font-size="27" font-family="Raleway-Bold, Raleway" font-weight="700"><tspan x="0" y="0">JAVASCRIPT</tspan></text>
    </g>
  </g>
</svg>
