<svg xmlns="http://www.w3.org/2000/svg" width="255" height="255" viewBox="0 0 255 255">
  <g id="Grupo_23" data-name="Grupo 23" transform="translate(-887 -513)">
    <g id="Grupo_17" data-name="Grupo 17" transform="translate(2 232)">
      <g id="Grupo_10" data-name="Grupo 10" transform="translate(885 281)">
        <rect id="Rectángulo_9" data-name="Rectángulo 9" width="255" height="255" fill="#f2f2f2"/>
      </g>
    </g>
    <path id="jquery" d="M7.181,25.97C-2.812,40.327-1.574,59,6.065,74.247c.174.372.367.725.555,1.078a7.589,7.589,0,0,0,.362.7,3.973,3.973,0,0,0,.221.391c.122.245.254.48.381.715l.739,1.247c.137.231.268.457.424.687.259.442.565.88.833,1.323.122.184.235.367.372.551q.685,1.076,1.459,2.09c.367.5.734.993,1.13,1.483.127.179.268.358.4.537l1.04,1.266c.127.146.254.315.391.466.461.555.951,1.1,1.44,1.643,0,.009.014.019.024.033a14.734,14.734,0,0,0,2,2.071c.377.386.753.772,1.153,1.149l.475.457c.522.49,1.045.979,1.6,1.45.009,0,.014.009.024.014l.268.235c.48.419.965.838,1.459,1.224l.588.494c.4.32.814.626,1.224.941l.64.49c.438.329.9.654,1.351.974.165.118.33.235.5.344l.137.108,1.323.871.565.377c.692.442,1.379.861,2.062,1.276.2.1.4.207.579.32.508.292,1.036.588,1.549.861.282.16.574.3.866.442.353.2.72.391,1.1.588a1.526,1.526,0,0,1,.264.108c.155.071.3.146.452.221.565.282,1.153.551,1.765.819a3.834,3.834,0,0,1,.358.16c.678.3,1.356.579,2.057.857.16.047.329.127.494.188.635.24,1.29.485,1.935.715l.235.085c.72.245,1.431.48,2.161.706.169.047.344.108.522.155a22.889,22.889,0,0,0,2.226.64c48.3,8.8,62.332-29.038,62.332-29.038-11.791,15.355-32.715,19.4-52.532,14.9-.734-.169-1.469-.4-2.208-.621q-1.344-.4-2.669-.852l-.292-.113c-.64-.217-1.257-.457-1.883-.7q-.255-.106-.518-.193c-.692-.278-1.365-.565-2.033-.861-.146-.047-.268-.113-.414-.169q-.853-.393-1.7-.8c-.174-.075-.33-.155-.5-.245-.442-.207-.885-.442-1.318-.668q-.446-.214-.88-.452c-.532-.282-1.064-.588-1.6-.88-.16-.113-.344-.207-.527-.311q-1.041-.616-2.062-1.266-.284-.177-.555-.372-.749-.462-1.469-.97c-.165-.108-.315-.226-.485-.344q-.7-.486-1.384-1c-.2-.16-.41-.311-.621-.471-.414-.325-.833-.635-1.247-.979l-.555-.442q-.8-.645-1.572-1.323a1.215,1.215,0,0,0-.174-.141L29.262,78l-.471-.442c-.386-.391-.781-.767-1.177-1.153l-.457-.471q-.746-.742-1.455-1.52l-.071-.075c-.5-.546-.984-1.1-1.473-1.666-.127-.146-.245-.3-.377-.457l-1.064-1.3q-.814-1.044-1.6-2.109C10.128,53.8,6.15,33.088,14.948,16.1m23.239-2.222c-7.244,10.4-6.835,24.3-1.2,35.3a42.835,42.835,0,0,0,3.187,5.328,24.963,24.963,0,0,0,3.728,4.641c.5.574,1.05,1.13,1.619,1.69l.424.424q.8.777,1.648,1.53l.071.061q.952.831,1.949,1.61c.16.108.3.235.452.344.659.508,1.323,1,2.01,1.483l.071.042c.292.212.6.4.932.612.132.085.282.2.424.282.5.32.989.621,1.492.927.08.033.151.075.226.108.424.259.885.508,1.327.739.155.094.306.165.466.254.315.155.626.32.927.48l.151.066c.635.311,1.285.6,1.921.894.16.061.3.113.433.179.522.226,1.054.442,1.577.645.235.08.457.174.678.245.48.179.984.344,1.459.508l.659.212a15.93,15.93,0,0,0,2.109.607c37.281,6.18,45.914-22.533,45.914-22.533C105.071,61.74,90.032,67.069,74,62.908q-1.063-.275-2.109-.612c-.226-.061-.424-.132-.64-.2-.49-.169-.993-.334-1.469-.513l-.678-.254c-.527-.212-1.064-.41-1.577-.635-.16-.071-.306-.118-.428-.188-.659-.3-1.323-.588-1.963-.9l-.97-.5-.56-.282c-.433-.226-.833-.461-1.247-.706a2.919,2.919,0,0,1-.292-.16c-.5-.311-1.017-.612-1.492-.932-.16-.089-.306-.2-.457-.292l-.979-.64c-.678-.471-1.342-.979-2.01-1.469-.151-.137-.3-.249-.442-.372A44.756,44.756,0,0,1,41.449,32.556C38.672,23.64,39.284,13.642,44.08,5.527m20.18-.692a21.731,21.731,0,0,0-1.742,20.97,29.594,29.594,0,0,0,16.965,15.84c.306.118.6.217.918.329l.414.127c.433.137.871.3,1.318.4,20.6,3.973,26.172-10.577,27.673-12.714-4.9,7.042-13.128,8.732-23.216,6.279a22.8,22.8,0,0,1-2.429-.753,29.862,29.862,0,0,1-2.9-1.2,30.7,30.7,0,0,1-5.084-3.107C67.136,24.163,61.539,11.1,67.433.453" transform="translate(958.326 563.547)"/>
    <text id="JQUERY-2" data-name="JQUERY" transform="translate(1015 715)" fill="#4d4d4d" font-size="27" font-family="Raleway-Bold, Raleway" font-weight="700"><tspan x="-52.637" y="0">JQUERY</tspan></text>
  </g>
</svg>
