<svg xmlns="http://www.w3.org/2000/svg" width="255" height="255" viewBox="0 0 255 255">
  <g id="Grupo_21" data-name="Grupo 21" transform="translate(-140 -513)">
    <g id="Grupo_15" data-name="Grupo 15" transform="translate(140 513)">
      <rect id="Rectángulo_9" data-name="Rectángulo 9" width="255" height="255" fill="#f2f2f2"/>
    </g>
    <path id="sass" d="M56.486,0A56.486,56.486,0,1,1,0,56.486,56.488,56.488,0,0,1,56.486,0ZM45.259,75.305a14.436,14.436,0,0,1-.113,8.435l-.306.847c-.113.287-.245.565-.367.828a15.835,15.835,0,0,1-2.612,3.813c-3.286,3.573-7.87,4.928-9.838,3.789-2.118-1.233-1.064-6.284,2.749-10.309a38.429,38.429,0,0,1,9.979-7.1v-.014ZM91.912,24.181c-2.551-10.04-19.191-13.34-34.937-7.743-9.363,3.328-19.506,8.558-26.8,15.378-8.675,8.1-10.054,15.162-9.485,18.113C22.7,60.336,36.965,67.143,42.83,72.194v.028c-1.728.847-14.385,7.2-17.351,13.768-3.177,6.92.494,11.867,2.895,12.5,7.414,2.052,15.039-1.695,19.135-7.762,3.954-5.936,3.606-13.561,1.9-17.3a21.963,21.963,0,0,1,8.614-.49c9.89,1.13,11.867,7.343,11.438,9.885a6.787,6.787,0,0,1-3.173,4.444c-.706.428-.918.565-.852.852.071.424.428.424.989.353A7.832,7.832,0,0,0,71.8,81.542C72.01,75.47,66.216,68.7,55.912,68.833c-4.236.075-6.924.428-8.826,1.205a1.705,1.705,0,0,0-.494-.494c-6.355-6.849-18.146-11.65-17.652-20.759.141-3.319,1.342-12.069,22.594-22.66,17.44-8.689,31.354-6.284,33.755-.989,3.45,7.55-7.418,21.606-25.565,23.649-6.92.777-10.52-1.9-11.443-2.895-.984-1.059-1.125-1.13-1.478-.913-.565.282-.212,1.2,0,1.765.565,1.412,2.754,3.883,6.571,5.154,3.314,1.059,11.438,1.69,21.182-2.118C85.5,45.546,94.04,33.75,91.568,23.865l.344.315Z" transform="translate(211 564)"/>
    <text id="SASS-2" data-name="SASS" transform="translate(234 715)" fill="#4d4d4d" font-size="27" font-family="Raleway-Bold, Raleway" font-weight="700"><tspan x="0" y="0">SASS</tspan></text>
  </g>
</svg>
